<svg aria-hidden="true" style="position: absolute; width: 0; height: 0; overflow: hidden;" version="1.1" xmlns="http://www.w3.org/2000/svg" xmlns:xlink="http://www.w3.org/1999/xlink">
<defs>
<symbol id="icon-github" viewBox="0 0 32 32">
<path d="M16 0.395c-8.836 0-16 7.163-16 16 0 7.069 4.585 13.067 10.942 15.182 0.8 0.148 1.094-0.347 1.094-0.77 0-0.381-0.015-1.642-0.022-2.979-4.452 0.968-5.391-1.888-5.391-1.888-0.728-1.849-1.776-2.341-1.776-2.341-1.452-0.993 0.11-0.973 0.11-0.973 1.606 0.113 2.452 1.649 2.452 1.649 1.427 2.446 3.743 1.739 4.656 1.33 0.143-1.034 0.558-1.74 1.016-2.14-3.554-0.404-7.29-1.777-7.29-7.907 0-1.747 0.625-3.174 1.649-4.295-0.166-0.403-0.714-2.030 0.155-4.234 0 0 1.344-0.43 4.401 1.64 1.276-0.355 2.645-0.532 4.005-0.539 1.359 0.006 2.729 0.184 4.008 0.539 3.054-2.070 4.395-1.64 4.395-1.64 0.871 2.204 0.323 3.831 0.157 4.234 1.026 1.12 1.647 2.548 1.647 4.295 0 6.145-3.743 7.498-7.306 7.895 0.574 0.497 1.085 1.47 1.085 2.963 0 2.141-0.019 3.864-0.019 4.391 0 0.426 0.288 0.925 1.099 0.768 6.354-2.118 10.933-8.113 10.933-15.18 0-8.837-7.164-16-16-16z"></path>
</symbol>
<symbol id="icon-linkedin" viewBox="0 0 32 32">
<path d="M29 0h-26c-1.65 0-3 1.35-3 3v26c0 1.65 1.35 3 3 3h26c1.65 0 3-1.35 3-3v-26c0-1.65-1.35-3-3-3zM12 26h-4v-14h4v14zM10 10c-1.106 0-2-0.894-2-2s0.894-2 2-2c1.106 0 2 0.894 2 2s-0.894 2-2 2zM26 26h-4v-8c0-1.106-0.894-2-2-2s-2 0.894-2 2v8h-4v-14h4v2.481c0.825-1.131 2.087-2.481 3.5-2.481 2.488 0 4.5 2.238 4.5 5v9z"></path>
</symbol>
<symbol id="icon-html-five" viewBox="0 0 32 32">
<path d="M1.892 0l2.567 28.801 11.524 3.199 11.554-3.204 2.572-28.796h-28.216zM24.52 9.42h-13.517l0.322 3.617h12.874l-0.97 10.844-7.245 2.008-7.237-2.008-0.495-5.547h3.547l0.252 2.82 3.933 1.060 0.009-0.002 3.935-1.062 0.408-4.58h-12.242l-0.953-10.681h17.694l-0.316 3.532z"></path>
</symbol>
<symbol id="icon-mail4" viewBox="0 0 32 32">
<path d="M16 0c-8.837 0-16 7.163-16 16s7.163 16 16 16 16-7.163 16-16-7.163-16-16-16zM8 8h16c0.286 0 0.563 0.061 0.817 0.177l-8.817 10.286-8.817-10.287c0.254-0.116 0.531-0.177 0.817-0.177zM6 22v-12c0-0.042 0.002-0.084 0.004-0.125l5.864 6.842-5.8 5.8c-0.045-0.167-0.069-0.34-0.069-0.517zM24 24h-16c-0.177 0-0.35-0.024-0.517-0.069l5.691-5.691 2.826 3.297 2.826-3.297 5.691 5.691c-0.167 0.045-0.34 0.069-0.517 0.069zM26 22c0 0.177-0.024 0.35-0.069 0.517l-5.8-5.8 5.865-6.842c0.003 0.041 0.004 0.083 0.004 0.125v12z"></path>
</symbol>
<symbol id="icon-paperplane" viewBox="0 0 32 32">
<path d="M3.363 4.414l4.875 19.348 9.467-3.018-8.448-10.298 10.902 9.56 8.853-2.77-25.649-12.822zM18.004 27.586v-5.324l-3.116 0.926 3.116 4.398z"></path>
</symbol>
<symbol id="icon-share" viewBox="0 0 32 32">
<path d="M8 20c0 0 1.838-6 12-6v6l12-8-12-8v6c-8 0-12 4.99-12 10zM22 24h-18v-12h3.934c0.315-0.372 0.654-0.729 1.015-1.068 1.374-1.287 3.018-2.27 4.879-2.932h-13.827v20h26v-8.395l-4 2.667v1.728z"></path>
</symbol>
<symbol id="icon-cross" viewBox="0 0 32 32">
<path d="M31.708 25.708c-0-0-0-0-0-0l-9.708-9.708 9.708-9.708c0-0 0-0 0-0 0.105-0.105 0.18-0.227 0.229-0.357 0.133-0.356 0.057-0.771-0.229-1.057l-4.586-4.586c-0.286-0.286-0.702-0.361-1.057-0.229-0.13 0.048-0.252 0.124-0.357 0.228 0 0-0 0-0 0l-9.708 9.708-9.708-9.708c-0-0-0-0-0-0-0.105-0.104-0.227-0.18-0.357-0.228-0.356-0.133-0.771-0.057-1.057 0.229l-4.586 4.586c-0.286 0.286-0.361 0.702-0.229 1.057 0.049 0.13 0.124 0.252 0.229 0.357 0 0 0 0 0 0l9.708 9.708-9.708 9.708c-0 0-0 0-0 0-0.104 0.105-0.18 0.227-0.229 0.357-0.133 0.355-0.057 0.771 0.229 1.057l4.586 4.586c0.286 0.286 0.702 0.361 1.057 0.229 0.13-0.049 0.252-0.124 0.357-0.229 0-0 0-0 0-0l9.708-9.708 9.708 9.708c0 0 0 0 0 0 0.105 0.105 0.227 0.18 0.357 0.229 0.356 0.133 0.771 0.057 1.057-0.229l4.586-4.586c0.286-0.286 0.362-0.702 0.229-1.057-0.049-0.13-0.124-0.252-0.229-0.357z"></path>
</symbol>
<symbol id="icon-forward" viewBox="0 0 32 32">
<path d="M17.961 11.954v-9.954l14.039 14-14.039 14v-10.042c-7.135 0-14.177 1.242-17.961 7.136 0.394-10.741 8.43-13.298 17.961-15.14z"></path>
</symbol>
<symbol id="icon-document-code" viewBox="0 0 32 32">
<path d="M19.5 3h0.5l6 7v18.009c0 1.093-0.894 1.991-1.997 1.991h-15.005c-1.107 0-1.997-0.899-1.997-2.007v-22.985c0-1.109 0.897-2.007 2.003-2.007h10.497zM19 4h-10.004c-0.55 0-0.996 0.455-0.996 0.995v23.009c0 0.55 0.455 0.995 1 0.995h15c0.552 0 1-0.445 1-0.993v-17.007h-4.002c-1.103 0-1.998-0.887-1.998-2.006v-4.994zM20 4.5v4.491c0 0.557 0.451 1.009 0.997 1.009h3.703l-4.7-5.5zM17 18l-2 8h1l2-8h-1zM13 25l-3-3 3-3 0.7 0.7-2.3 2.3 2.3 2.3-0.7 0.7zM20 25l3-3-3-3-0.7 0.7 2.3 2.3-2.3 2.3 0.7 0.7z"></path>
</symbol>
<symbol id="icon-display" viewBox="0 0 32 32">
<path d="M0 2v20h32v-20h-32zM30 20h-28v-16h28v16zM21 24h-10l-1 4-2 2h16l-2-2z"></path>
</symbol>
<symbol id="icon-arrow-up2" viewBox="0 0 32 32">
<path d="M27.414 12.586l-10-10c-0.781-0.781-2.047-0.781-2.828 0l-10 10c-0.781 0.781-0.781 2.047 0 2.828s2.047 0.781 2.828 0l6.586-6.586v19.172c0 1.105 0.895 2 2 2s2-0.895 2-2v-19.172l6.586 6.586c0.39 0.39 0.902 0.586 1.414 0.586s1.024-0.195 1.414-0.586c0.781-0.781 0.781-2.047 0-2.828z"></path>
</symbol>
<symbol id="icon-images" viewBox="0 0 36 32">
<path d="M34 4h-2v-2c0-1.1-0.9-2-2-2h-28c-1.1 0-2 0.9-2 2v24c0 1.1 0.9 2 2 2h2v2c0 1.1 0.9 2 2 2h28c1.1 0 2-0.9 2-2v-24c0-1.1-0.9-2-2-2zM4 6v20h-1.996c-0.001-0.001-0.003-0.002-0.004-0.004v-23.993c0.001-0.001 0.002-0.003 0.004-0.004h27.993c0.001 0.001 0.003 0.002 0.004 0.004v1.996h-24c-1.1 0-2 0.9-2 2v0zM34 29.996c-0.001 0.001-0.002 0.003-0.004 0.004h-27.993c-0.001-0.001-0.003-0.002-0.004-0.004v-23.993c0.001-0.001 0.002-0.003 0.004-0.004h27.993c0.001 0.001 0.003 0.002 0.004 0.004v23.993z"></path>
<path d="M30 11c0 1.657-1.343 3-3 3s-3-1.343-3-3 1.343-3 3-3 3 1.343 3 3z"></path>
<path d="M32 28h-24v-4l7-12 8 10h2l7-6z"></path>
</symbol>
<symbol id="icon-c" viewBox="0 0 32 32">
<path style=" stroke:none;fill-rule:evenodd;fill:rgb(0%,26.666667%,50.980392%);fill-opacity:1;" d="M 13.664062 0.21875 C 14.179688 -0.0703125 14.820312 -0.0703125 15.335938 0.21875 C 17.898438 1.652344 25.601562 5.972656 28.164062 7.40625 C 28.679688 7.695312 29 8.230469 29 8.8125 C 29 11.683594 29 20.316406 29 23.1875 C 29 23.769531 28.679688 24.304688 28.164062 24.59375 C 25.601562 26.027344 17.898438 30.347656 15.335938 31.78125 C 14.816406 32.074219 14.179688 32.074219 13.664062 31.78125 C 11.101562 30.347656 3.398438 26.027344 0.835938 24.59375 C 0.320312 24.304688 0 23.769531 0 23.1875 C 0 20.320312 0 11.683594 0 8.8125 C 0 8.234375 0.320312 7.695312 0.835938 7.40625 C 3.398438 5.972656 11.101562 1.652344 13.664062 0.21875 Z M 13.664062 0.21875 "/>
<path style=" stroke:none;fill-rule:evenodd;fill:rgb(39.607843%,60.392157%,82.352941%);fill-opacity:1;" d="M 0.230469 23.925781 C 0.0273438 23.65625 0 23.398438 0 23.050781 C 0 20.199219 0 11.613281 0 8.757812 C 0 8.179688 0.316406 7.648438 0.835938 7.359375 C 3.386719 5.933594 11.066406 1.640625 13.617188 0.214844 C 14.132812 -0.0742188 14.832031 -0.0703125 15.347656 0.21875 C 17.902344 1.644531 25.554688 5.902344 28.105469 7.328125 C 28.3125 7.445312 28.46875 7.585938 28.609375 7.769531 Z M 0.230469 23.925781 "/>
<path style=" stroke:none;fill-rule:evenodd;fill:rgb(100%,100%,100%);fill-opacity:1;" d="M 14.5 5.332031 C 20.398438 5.332031 25.183594 10.113281 25.183594 16 C 25.183594 21.886719 20.398438 26.667969 14.5 26.667969 C 8.601562 26.667969 3.816406 21.886719 3.816406 16 C 3.816406 10.113281 8.601562 5.332031 14.5 5.332031 Z M 14.5 10.667969 C 17.449219 10.667969 19.84375 13.054688 19.84375 16 C 19.84375 18.945312 17.449219 21.332031 14.5 21.332031 C 11.550781 21.332031 9.15625 18.945312 9.15625 16 C 9.15625 13.054688 11.550781 10.667969 14.5 10.667969 Z M 14.5 10.667969 "/>
<path style=" stroke:none;fill-rule:evenodd;fill:rgb(0%,34.901961%,61.176471%);fill-opacity:1;" d="M 28.605469 7.777344 C 29 8.144531 28.992188 8.699219 28.992188 9.132812 C 28.992188 12.027344 28.96875 20.25 29 23.140625 C 29.003906 23.441406 28.902344 23.761719 28.753906 24 L 14.1875 16 Z M 28.605469 7.777344 "/>
</symbol>
<symbol id="icon-sass" viewBox="0 0 32 32">
<path fill="#c69" style="fill: var(--color2, #c69)" d="M16 0c8.836 0 16 7.164 16 16s-7.164 16-16 16-16-7.164-16-16 7.164-16 16-16zM12.82 21.331c0.233 0.86 0.208 1.664-0.032 2.389l-0.087 0.24c-0.032 0.081-0.069 0.16-0.104 0.235-0.187 0.387-0.435 0.747-0.74 1.080-0.931 1.012-2.229 1.396-2.787 1.073-0.6-0.349-0.301-1.78 0.779-2.92 1.161-1.224 2.827-2.012 2.827-2.012v-0.004zM26.035 6.849c-0.723-2.844-5.436-3.779-9.896-2.193-2.652 0.943-5.525 2.424-7.591 4.356-2.457 2.295-2.848 4.295-2.687 5.131 0.569 2.948 4.609 4.876 6.271 6.307v0.008c-0.489 0.24-4.075 2.039-4.915 3.9-0.9 1.96 0.14 3.361 0.82 3.54 2.1 0.581 4.26-0.48 5.42-2.199 1.12-1.681 1.021-3.841 0.539-4.901 0.661-0.18 1.44-0.26 2.44-0.139 2.801 0.32 3.361 2.080 3.24 2.8-0.12 0.719-0.697 1.139-0.899 1.259-0.2 0.121-0.26 0.16-0.241 0.241 0.020 0.12 0.121 0.12 0.28 0.1 0.22-0.040 1.461-0.6 1.521-1.961 0.060-1.72-1.581-3.639-4.5-3.6-1.2 0.021-1.961 0.121-2.5 0.341-0.040-0.060-0.081-0.1-0.14-0.14-1.8-1.94-5.14-3.3-5-5.88 0.040-0.94 0.38-3.419 6.4-6.419 4.94-2.461 8.881-1.78 9.561-0.28 0.977 2.139-2.101 6.12-7.241 6.699-1.96 0.22-2.98-0.539-3.241-0.82-0.279-0.3-0.319-0.32-0.419-0.259-0.16 0.080-0.060 0.34 0 0.5 0.16 0.4 0.78 1.1 1.861 1.46 0.939 0.3 3.24 0.479 6-0.6 3.099-1.199 5.519-4.54 4.819-7.34z"></path>
</symbol>
<symbol id="icon-node-dot-js" viewBox="0 0 32 32">
<path fill="#393" style="fill: var(--color3, #393)" d="M15.997 32c-0.428 0-0.855-0.112-1.229-0.329l-3.915-2.316c-0.584-0.327-0.299-0.443-0.107-0.511 0.78-0.271 0.937-0.333 1.771-0.805 0.087-0.049 0.201-0.031 0.291 0.023l3.008 1.785c0.109 0.060 0.263 0.060 0.363 0l11.727-6.768c0.109-0.063 0.179-0.188 0.179-0.317v-13.533c0-0.132-0.071-0.256-0.183-0.323l-11.721-6.763c-0.108-0.063-0.252-0.063-0.361 0l-11.719 6.764c-0.113 0.065-0.185 0.193-0.185 0.321v13.533c0 0.129 0.072 0.252 0.185 0.313l3.212 1.856c1.743 0.872 2.811-0.155 2.811-1.187v-13.361c0-0.189 0.152-0.337 0.341-0.337h1.487c0.185 0 0.34 0.149 0.34 0.337v13.361c0 2.327-1.267 3.66-3.472 3.66-0.677 0-1.212 0-2.701-0.735l-3.077-1.769c-0.76-0.439-1.229-1.26-1.229-2.139v-13.533c0-0.879 0.471-1.7 1.229-2.137l11.727-6.776c0.743-0.42 1.728-0.42 2.464 0l11.725 6.776c0.76 0.439 1.232 1.259 1.232 2.137v13.533c0 0.879-0.472 1.697-1.232 2.139l-11.725 6.771c-0.373 0.217-0.799 0.329-1.233 0.329zM25.465 18.657c0-2.533-1.712-3.208-5.316-3.684-3.641-0.481-4.012-0.731-4.012-1.583 0-0.704 0.313-1.644 3.011-1.644 2.409 0 3.297 0.519 3.663 2.143 0.032 0.153 0.172 0.265 0.329 0.265h1.521c0.095 0 0.184-0.041 0.248-0.108 0.064-0.072 0.099-0.164 0.089-0.261-0.236-2.797-2.095-4.101-5.851-4.101-3.344 0-5.339 1.411-5.339 3.777 0 2.567 1.984 3.276 5.193 3.593 3.84 0.376 4.137 0.937 4.137 1.692 0 1.311-1.052 1.869-3.523 1.869-3.103 0-3.785-0.779-4.015-2.323-0.027-0.165-0.168-0.287-0.337-0.287h-1.516c-0.188 0-0.339 0.149-0.339 0.337 0 1.976 1.075 4.331 6.207 4.331 3.717 0.001 5.848-1.461 5.848-4.017z"></path>
</symbol>
<symbol id="icon-javascript" viewBox="0 0 32 32">
<path fill="#f7df1e" style="fill: var(--color4, #f7df1e)" d="M0 0h32v32h-32zM29.379 24.368c-0.233-1.46-1.184-2.687-4.004-3.831-0.981-0.46-2.072-0.78-2.396-1.52-0.121-0.44-0.14-0.68-0.061-0.94 0.2-0.861 1.22-1.12 2.020-0.88 0.52 0.16 1 0.56 1.301 1.2 1.379-0.901 1.379-0.901 2.34-1.5-0.36-0.56-0.539-0.801-0.781-1.040-0.84-0.94-1.959-1.42-3.779-1.379l-0.94 0.119c-0.901 0.22-1.76 0.7-2.28 1.34-1.52 1.721-1.081 4.721 0.759 5.961 1.82 1.36 4.481 1.659 4.821 2.94 0.32 1.56-1.16 2.060-2.621 1.88-1.081-0.24-1.68-0.781-2.34-1.781l-2.44 1.401c0.28 0.64 0.6 0.919 1.080 1.479 2.32 2.341 8.12 2.221 9.161-1.339 0.039-0.12 0.32-0.94 0.099-2.2zM17.401 14.708h-2.997c0 2.584-0.012 5.152-0.012 7.74 0 1.643 0.084 3.151-0.184 3.615-0.44 0.919-1.573 0.801-2.088 0.64-0.528-0.261-0.796-0.621-1.107-1.14-0.084-0.14-0.147-0.261-0.169-0.261l-2.433 1.5c0.407 0.84 1 1.563 1.765 2.023 1.14 0.68 2.672 0.9 4.276 0.54 1.044-0.301 1.944-0.921 2.415-1.881 0.68-1.24 0.536-2.76 0.529-4.461 0.016-2.739 0-5.479 0-8.239z"></path>
</symbol>
<symbol id="icon-mongodb" viewBox="0 0 32 32">
<path fill="#47a248" style="fill: var(--color1, #47a248)" d="M22.907 12.691c-1.684-7.413-5.656-9.849-6.083-10.781-0.469-0.657-0.977-1.909-0.977-1.909-0.003 0.025-0.005 0.041-0.007 0.065v0.017h-0.001c-0.003 0.020-0.004 0.033-0.005 0.052v0.020h-0.003c0 0.013-0.003 0.024-0.003 0.035v0.035h-0.004c-0.001 0.011-0.001 0.024-0.004 0.033v0.028h-0.003c0 0.009 0 0.020-0.003 0.028v0.027h-0.003c0 0.013-0.001 0.029-0.003 0.043v0.003c-0.004 0.023-0.008 0.045-0.012 0.067v0.011h-0.003c-0.001 0.005-0.004 0.011-0.004 0.016v0.023h-0.004v0.029h-0.007v0.024h-0.007v0.028h-0.005v0.025h-0.005v0.023h-0.008v0.019h-0.005v0.024h-0.005v0.019h-0.007v0.017h-0.004v0.020h-0.005c-0.001 0.001-0.001 0.004-0.001 0.005v0.013h-0.004c-0.001 0.003-0.001 0.005-0.001 0.008v0.008h-0.003c-0.001 0.004-0.003 0.011-0.003 0.013-0.004 0.009-0.009 0.019-0.013 0.028v0.003c-0.003 0.003-0.005 0.007-0.007 0.009v0.011h-0.005v0.011h-0.007v0.011h-0.004v0.013h-0.008v0.019h-0.005v0.005h-0.005v0.011h-0.005v0.015h-0.005v0.011h-0.008v0.015h-0.005v0.011h-0.007v0.011h-0.004v0.013h-0.007v0.011h-0.005v0.008h-0.005v0.011h-0.008v0.012h-0.005v0.008h-0.007v0.011h-0.005v0.015h-0.007v0.005h-0.004v0.011h-0.008v0.005h-0.005v0.013h-0.005v0.005h-0.005v0.011h-0.007v0.008h-0.004l-0.003 0.005v0.005h-0.003c-0.001 0.003-0.003 0.003-0.003 0.005v0.001h-0.001c-0.001 0.004-0.003 0.007-0.005 0.009v0.004h-0.001c-0.007 0.008-0.011 0.016-0.016 0.024v0.001c-0.003 0.003-0.009 0.008-0.012 0.013v0.003h-0.001c-0.001 0.001-0.004 0.003-0.004 0.004v0.004h-0.003l-0.004 0.004v0.001h-0.001c0 0.001-0.003 0.003-0.004 0.005v0.005h-0.004l-0.003 0.003v0.003h-0.003c0 0.003-0.003 0.003-0.003 0.004v0.004h-0.005c0 0.001-0.001 0.003-0.003 0.004v0.008h-0.004v0.005h-0.005v0.008h-0.005v0.011h-0.007v-0.011h-0.007v0.005h-0.005v0.008h-0.007v0.011h-0.007v0.005h-0.005v0.008h-0.005v0.005h-0.005v0.011h-0.008v0.005h-0.005v0.008h-0.007v0.005h-0.005v0.007h-0.007v0.013h-0.003v0.005h-0.008v0.007h-0.005v0.003h-0.005v0.005h-0.007v0.013h-0.005v0.005h-0.007v0.005h-0.005v0.008h-0.007v0.005h-0.007v0.005h-0.005v0.005h-0.005v0.013h-0.005v0.007h-0.008v0.005h-0.005v0.005h-0.007v0.008h-0.005v0.005h-0.007v0.009h-0.005v0.005h-0.008v0.008h-0.003v0.005h-0.005v0.005h-0.007v0.005h-0.005v0.008h-0.007v0.005h-0.004c-0.001 0.001-0.001 0.003-0.001 0.003v0.003h-0.003l-0.005 0.005c0 0-0.003 0.003-0.005 0.004v0.008h-0.005v0.007h-0.005v0.005h-0.005v0.005h-0.004l-0.004 0.004v0.004h-0.003l-0.003 0.003v0.004h-0.003c-0.007 0.008-0.009 0.013-0.019 0.021-0.003 0.003-0.011 0.009-0.016 0.013-0.016 0.011-0.036 0.028-0.052 0.043-0.011 0.007-0.021 0.016-0.029 0.023v0.001h-0.001c-0.021 0.017-0.041 0.033-0.065 0.052v0.001c-0.032 0.027-0.063 0.052-0.099 0.083v-0.001h-0.003c-0.076 0.063-0.156 0.133-0.248 0.212v0.001h-0.001c-0.225 0.197-0.493 0.451-0.793 0.757l-0.025 0.025c-1.813 1.876-4.671 5.785-4.972 12.103-0.027 0.523-0.021 1.031 0.008 1.525v0.012c0.145 2.489 0.927 4.615 1.904 6.341v0.001c0.389 0.688 0.809 1.313 1.235 1.873v0.001c1.469 1.94 2.969 3.089 3.352 3.368 0.588 1.364 0.533 3.705 0.533 3.705l0.859 0.287c0 0-0.175-2.268 0.071-3.363 0.076-0.343 0.256-0.635 0.465-0.883 0.141-0.1 0.56-0.401 1.063-0.86 0.024-0.025 0.037-0.048 0.059-0.072 2.028-1.891 5.816-6.547 4.517-14.132z"></path>
</symbol>
<symbol id="icon-python" viewBox="0 0 32 32">
<path fill="#3776ab" style="fill: var(--color1, #3776ab)" d="M19.080 0.24l1.2 0.267 0.973 0.347 0.787 0.4 0.6 0.427 0.453 0.453 0.333 0.453 0.213 0.44 0.133 0.4 0.053 0.347 0.027 0.267-0.013 0.173v7.12l-0.067 0.84-0.173 0.733-0.28 0.613-0.347 0.507-0.4 0.413-0.44 0.333-0.467 0.253-0.467 0.187-0.44 0.133-0.4 0.093-0.347 0.053-0.28 0.027h-7.96l-0.92 0.067-0.787 0.187-0.667 0.293-0.547 0.36-0.44 0.427-0.36 0.467-0.267 0.48-0.2 0.493-0.133 0.467-0.093 0.427-0.053 0.36-0.027 0.28v4.080h-2.973l-0.28-0.040-0.373-0.093-0.427-0.16-0.467-0.24-0.48-0.347-0.48-0.48-0.467-0.613-0.427-0.787-0.373-0.973-0.28-1.173-0.187-1.4-0.067-1.64 0.080-1.627 0.213-1.387 0.32-1.16 0.427-0.947 0.48-0.76 0.533-0.587 0.56-0.44 0.56-0.32 0.533-0.213 0.48-0.133 0.427-0.067 0.32-0.013h0.213l0.080 0.013h10.88v-1.107h-7.787l-0.013-3.667-0.027-0.493 0.067-0.453 0.147-0.413 0.227-0.373 0.333-0.347 0.413-0.307 0.507-0.267 0.587-0.24 0.68-0.2 0.773-0.16 0.853-0.133 0.947-0.080 1.027-0.053 1.12-0.027 1.693 0.067zM10.68 2.88l-0.307 0.44-0.107 0.547 0.107 0.547 0.307 0.453 0.44 0.293 0.547 0.12 0.547-0.12 0.44-0.293 0.307-0.453 0.107-0.547-0.107-0.547-0.307-0.44-0.44-0.293-0.547-0.12-0.547 0.12zM28.133 8.147l0.373 0.080 0.427 0.16 0.467 0.24 0.48 0.36 0.48 0.467 0.467 0.627 0.427 0.787 0.373 0.973 0.28 1.173 0.187 1.387 0.067 1.64-0.080 1.64-0.213 1.387-0.32 1.147-0.427 0.947-0.48 0.76-0.533 0.6-0.56 0.44-0.56 0.32-0.533 0.213-0.48 0.12-0.427 0.067-0.32 0.027-0.213-0.013h-10.96v1.093h7.787l0.013 3.68 0.027 0.48-0.067 0.453-0.147 0.413-0.227 0.387-0.333 0.333-0.413 0.32-0.507 0.267-0.587 0.227-0.68 0.2-0.773 0.173-0.853 0.12-0.947 0.093-1.027 0.053-1.12 0.013-1.693-0.053-1.427-0.187-1.2-0.267-0.973-0.333-0.787-0.4-0.6-0.44-0.453-0.453-0.333-0.453-0.213-0.44-0.133-0.4-0.053-0.333-0.027-0.267 0.013-0.173v-7.12l0.067-0.853 0.173-0.72 0.28-0.613 0.347-0.507 0.4-0.427 0.44-0.32 0.467-0.267 0.467-0.187 0.44-0.133 0.4-0.080 0.347-0.053 0.28-0.027 0.173-0.013h7.787l0.92-0.067 0.787-0.187 0.667-0.28 0.547-0.373 0.44-0.427 0.36-0.467 0.267-0.48 0.2-0.48 0.133-0.467 0.093-0.427 0.053-0.373 0.027-0.28v-4.080h2.787l0.187 0.013zM19.507 27.147l-0.307 0.44-0.107 0.547 0.107 0.547 0.307 0.44 0.44 0.307 0.547 0.107 0.547-0.107 0.44-0.307 0.307-0.44 0.107-0.547-0.107-0.547-0.307-0.44-0.44-0.307-0.547-0.107-0.547 0.107z"></path>
</symbol>
<symbol id="icon-cpp" viewBox="0 0 32 32">
<path style=" stroke:none;fill-rule:nonzero;fill:rgb(0%,34.901961%,61.176471%);fill-opacity:1;" d="M 27.644531 23.273438 C 27.863281 22.898438 28 22.476562 28 22.097656 L 28 8.933594 C 28 8.554688 27.863281 8.132812 27.644531 7.757812 L 14 15.515625 Z M 27.644531 23.273438 "/>
<path style=" stroke:none;fill-rule:nonzero;fill:rgb(0%,26.666667%,50.980392%);fill-opacity:1;" d="M 15.210938 30.746094 L 26.789062 24.164062 C 27.121094 23.976562 27.425781 23.648438 27.644531 23.273438 L 14 15.515625 L 0.355469 23.273438 C 0.574219 23.648438 0.878906 23.976562 1.210938 24.164062 L 12.789062 30.746094 C 13.453125 31.125 14.546875 31.125 15.210938 30.746094 Z M 15.210938 30.746094 "/>
<path style=" stroke:none;fill-rule:nonzero;fill:rgb(39.607843%,60.392157%,82.352941%);fill-opacity:1;" d="M 27.644531 7.757812 C 27.425781 7.382812 27.121094 7.054688 26.789062 6.867188 L 15.210938 0.285156 C 14.546875 -0.09375 13.453125 -0.09375 12.789062 0.285156 L 1.210938 6.867188 C 0.546875 7.246094 0 8.175781 0 8.933594 L 0 22.097656 C 0 22.476562 0.136719 22.898438 0.355469 23.273438 Z M 27.644531 7.757812 "/>
<path style=" stroke:none;fill-rule:nonzero;fill:rgb(100%,100%,100%);fill-opacity:1;" d="M 14 24.707031 C 8.855469 24.707031 4.667969 20.585938 4.667969 15.515625 C 4.667969 10.449219 8.855469 6.324219 14 6.324219 C 17.320312 6.324219 20.417969 8.082031 22.082031 10.917969 L 18.042969 13.21875 C 17.210938 11.800781 15.660156 10.917969 14 10.917969 C 11.425781 10.917969 9.332031 12.980469 9.332031 15.515625 C 9.332031 18.050781 11.425781 20.113281 14 20.113281 C 15.660156 20.113281 17.210938 19.230469 18.042969 17.8125 L 22.082031 20.113281 C 20.417969 22.949219 17.320312 24.707031 14 24.707031 Z M 14 24.707031 "/>
<path style=" stroke:none;fill-rule:nonzero;fill:rgb(100%,100%,100%);fill-opacity:1;" d="M 23.332031 15.003906 L 22.296875 15.003906 L 22.296875 13.984375 L 21.257812 13.984375 L 21.257812 15.003906 L 20.222656 15.003906 L 20.222656 16.027344 L 21.257812 16.027344 L 21.257812 17.046875 L 22.296875 17.046875 L 22.296875 16.027344 L 23.332031 16.027344 Z M 23.332031 15.003906 "/>
<path style=" stroke:none;fill-rule:nonzero;fill:rgb(100%,100%,100%);fill-opacity:1;" d="M 27.222656 15.003906 L 26.183594 15.003906 L 26.183594 13.984375 L 25.148438 13.984375 L 25.148438 15.003906 L 24.109375 15.003906 L 24.109375 16.027344 L 25.148438 16.027344 L 25.148438 17.046875 L 26.183594 17.046875 L 26.183594 16.027344 L 27.222656 16.027344 Z M 27.222656 15.003906 "/>
</symbol>
<symbol id="icon-pug" viewBox="0 0 32 32">
<path style=" stroke:none;fill-rule:nonzero;fill:rgb(93.72549%,80%,63.921569%);fill-opacity:1;" d="M 26.777344 12.300781 C 26.726562 11.203125 26.875 10.226562 26.378906 9.402344 C 25.179688 7.355469 22.179688 6.15625 16.1875 6.15625 L 16.1875 6.332031 L 16.0625 6.332031 L 16.1875 6.332031 L 16.1875 6.15625 C 10.191406 6.15625 7.046875 7.355469 5.847656 9.429688 C 5.371094 10.277344 5.421875 11.226562 5.347656 12.324219 C 5.296875 13.199219 4.898438 14.125 5.074219 15.125 C 5.273438 16.421875 5.347656 17.71875 5.546875 18.917969 C 5.699219 19.894531 7.046875 20.71875 7.171875 21.640625 C 7.519531 24.1875 10.167969 25.363281 16.164062 25.363281 L 16.164062 25.5625 L 16.039062 25.5625 L 16.1875 25.5625 L 16.1875 25.363281 C 22.179688 25.363281 24.730469 24.1875 25.054688 21.640625 C 25.179688 20.691406 26.425781 19.894531 26.578125 18.917969 C 26.777344 17.71875 26.851562 16.421875 27.050781 15.125 C 27.226562 14.125 26.828125 13.175781 26.777344 12.300781 Z M 26.777344 12.300781 "/>
<path style=" stroke:none;fill-rule:nonzero;fill:rgb(80%,67.45098%,55.294118%);fill-opacity:1;" d="M 16.085938 13.199219 C 17.160156 13.226562 17.910156 13.898438 18.609375 14.523438 C 19.433594 15.246094 20.832031 15.746094 21.40625 16.371094 C 21.980469 16.996094 22.730469 17.621094 23.003906 18.59375 C 23.28125 19.570312 23.355469 20.816406 23.355469 21.140625 C 23.355469 21.46875 23.53125 21.390625 24.03125 21.140625 C 25.203125 20.566406 26.503906 19.019531 26.503906 19.019531 C 26.351562 19.992188 25.078125 20.867188 24.953125 21.792969 C 24.652344 24.339844 22.179688 25.5625 16.0625 25.5625 L 16.039062 25.5625 L 16.1875 25.5625 "/>
<path style=" stroke:none;fill-rule:nonzero;fill:rgb(80%,67.45098%,55.294118%);fill-opacity:1;" d="M 20.035156 11.25 C 20.257812 12.027344 21.058594 14.648438 19.507812 13.773438 C 19.507812 13.773438 20.160156 14.148438 20.558594 15.574219 C 20.984375 16.996094 22.007812 17.171875 22.007812 17.171875 C 22.007812 17.171875 23.679688 17.496094 24.929688 16.421875 C 25.976562 15.523438 26.152344 13.925781 25.703125 12.699219 C 25.253906 11.5 24.453125 11.128906 23.28125 10.878906 C 22.105469 10.601562 19.757812 10.378906 20.035156 11.25 Z M 20.035156 11.25 "/>
<path style=" stroke:none;fill-rule:nonzero;fill:rgb(0%,0%,0%);fill-opacity:1;" d="M 25.203125 14.097656 C 25.203125 15.3125 24.21875 16.296875 23.003906 16.296875 C 21.792969 16.296875 20.808594 15.3125 20.808594 14.097656 C 20.808594 12.886719 21.792969 11.902344 23.003906 11.902344 C 24.21875 11.902344 25.203125 12.886719 25.203125 14.097656 Z M 25.203125 14.097656 "/>
<path style=" stroke:none;fill-rule:nonzero;fill:rgb(100%,100%,100%);fill-opacity:1;" d="M 23.003906 13.125 C 23.003906 13.441406 22.75 13.699219 22.429688 13.699219 C 22.113281 13.699219 21.855469 13.441406 21.855469 13.125 C 21.855469 12.808594 22.113281 12.550781 22.429688 12.550781 C 22.75 12.550781 23.003906 12.808594 23.003906 13.125 Z M 23.003906 13.125 "/>
<path style=" stroke:none;fill-rule:nonzero;fill:rgb(93.72549%,80%,63.921569%);fill-opacity:1;" d="M 19.660156 14 C 19.660156 14 21.632812 15.347656 22.707031 16.671875 C 23.78125 17.996094 23.753906 18.246094 23.753906 18.246094 L 22.980469 18.59375 C 22.980469 18.59375 21.882812 16.523438 20.53125 15.746094 C 19.160156 14.972656 19.007812 14.324219 19.007812 14.324219 Z M 19.660156 14 "/>
<path style=" stroke:none;fill-rule:nonzero;fill:rgb(80%,67.45098%,55.294118%);fill-opacity:1;" d="M 16.164062 13.199219 C 15.089844 13.226562 14.289062 13.898438 13.566406 14.523438 C 12.742188 15.246094 11.292969 15.746094 10.71875 16.371094 C 10.144531 16.996094 9.367188 17.621094 9.09375 18.59375 C 8.820312 19.570312 8.71875 20.816406 8.71875 21.140625 C 8.71875 21.46875 8.769531 21.492188 8.046875 21.140625 C 6.871094 20.59375 5.574219 19.019531 5.574219 19.019531 C 5.722656 19.992188 6.996094 20.867188 7.121094 21.792969 C 7.472656 24.339844 9.941406 25.5625 16.0625 25.5625 L 16.1875 25.5625 "/>
<path style=" stroke:none;fill-rule:nonzero;fill:rgb(33.72549%,20%,16.862745%);fill-opacity:1;" d="M 21.957031 17.421875 C 20.757812 15.949219 18.835938 14.574219 16.164062 14.574219 L 16.136719 14.574219 C 13.464844 14.574219 11.542969 15.949219 10.34375 17.421875 C 9.09375 18.945312 9.195312 19.542969 9.195312 20.992188 C 9.195312 26.238281 11.042969 24.738281 12.265625 25.386719 C 13.515625 26.011719 14.8125 25.8125 16.136719 25.8125 L 16.164062 25.8125 C 17.511719 25.8125 18.785156 25.988281 20.035156 25.363281 C 21.257812 24.738281 23.105469 26.289062 23.105469 21.042969 C 23.128906 19.59375 23.207031 18.945312 21.957031 17.421875 Z M 21.957031 17.421875 "/>
<path style=" stroke:none;fill-rule:nonzero;fill:rgb(26.666667%,15.686275%,13.72549%);fill-opacity:1;" d="M 16.039062 15.871094 C 16.039062 15.871094 15.863281 18.296875 15.511719 18.769531 L 16.164062 18.621094 Z M 16.039062 15.871094 "/>
<path style=" stroke:none;fill-rule:nonzero;fill:rgb(26.666667%,15.686275%,13.72549%);fill-opacity:1;" d="M 16.210938 15.871094 C 16.210938 15.871094 16.386719 18.296875 16.738281 18.769531 L 16.085938 18.621094 Z M 16.210938 15.871094 "/>
<path style=" stroke:none;fill-rule:nonzero;fill:rgb(33.72549%,20%,16.862745%);fill-opacity:1;" d="M 14.113281 15.296875 C 13.863281 14.722656 14.765625 13.800781 16.1875 13.773438 C 17.609375 13.773438 18.511719 14.699219 18.261719 15.296875 C 18.011719 15.898438 17.113281 16.070312 16.1875 16.097656 C 15.289062 16.070312 14.363281 15.898438 14.113281 15.296875 Z M 14.113281 15.296875 "/>
<path style=" stroke:none;fill-rule:nonzero;fill:rgb(0%,0%,0%);fill-opacity:1;" d="M 16.1875 15.871094 C 16.1875 15.773438 17.035156 15.746094 17.484375 15.449219 C 17.484375 15.449219 16.5625 15.746094 16.363281 15.621094 C 16.164062 15.523438 16.113281 15.222656 16.113281 15.222656 C 16.113281 15.222656 16.039062 15.523438 15.886719 15.621094 C 15.710938 15.722656 14.664062 15.449219 14.664062 15.449219 L 16.0625 15.871094 C 16.0625 15.949219 16.039062 16.195312 16.039062 16.371094 L 16.136719 18.667969 C 16.289062 18.894531 16.238281 16.996094 16.238281 16.371094 Z M 16.1875 15.871094 "/>
<path style="fill-rule:nonzero;fill:rgb(49.803922%,29.019608%,25.490196%);fill-opacity:1;stroke-width:4.159;stroke-linecap:butt;stroke-linejoin:miter;stroke:rgb(30.196078%,30.196078%,30.196078%);stroke-opacity:1;stroke-miterlimit:10;" d="M 65.204095 78.598439 C 66.89323 78.598439 69.896136 79.80273 72.601881 81.695187 C 70.005617 78.801761 66.89323 76.799823 65.204095 76.799823 C 63.405479 76.799823 59.604925 79.005083 56.89918 82.195671 C 59.698765 80.006052 63.295998 78.598439 65.204095 78.598439 Z M 65.204095 78.598439 " transform="matrix(0.249758,0,0,0.249758,-0.046963,-0.411839)"/>
<path style=" stroke:none;fill-rule:nonzero;fill:rgb(26.666667%,15.686275%,13.72549%);fill-opacity:1;" d="M 16.0625 23.640625 C 15.113281 23.640625 14.1875 23.339844 13.339844 23.117188 C 13.164062 23.066406 12.992188 23.191406 12.816406 23.140625 C 11.242188 22.640625 9.96875 21.792969 9.195312 20.71875 L 9.195312 20.96875 C 9.195312 26.210938 11.042969 24.738281 12.265625 25.363281 C 13.515625 25.988281 14.8125 25.789062 16.136719 25.789062 L 16.164062 25.789062 C 17.511719 25.789062 18.785156 25.960938 20.035156 25.339844 C 21.257812 24.714844 23.105469 26.238281 23.105469 20.992188 C 23.105469 20.792969 23.105469 20.59375 23.128906 20.417969 C 22.40625 21.59375 21.082031 22.515625 19.433594 23.066406 C 19.285156 23.117188 18.933594 22.992188 18.785156 23.015625 C 17.886719 23.316406 17.085938 23.640625 16.0625 23.640625 Z M 16.0625 23.640625 "/>
<path style=" stroke:none;fill-rule:nonzero;fill:rgb(26.666667%,15.686275%,13.72549%);fill-opacity:1;" d="M 13.691406 20.816406 C 13.691406 20.816406 13.066406 22.691406 13.488281 23.515625 L 12.914062 23.265625 C 12.914062 23.265625 13.339844 21.367188 13.691406 20.816406 Z M 18.636719 20.816406 C 18.636719 20.816406 19.257812 22.691406 18.835938 23.515625 L 19.410156 23.265625 C 19.410156 23.265625 18.960938 21.367188 18.636719 20.816406 Z M 18.636719 20.816406 "/>
<path style=" stroke:none;fill-rule:nonzero;fill:rgb(80%,67.45098%,55.294118%);fill-opacity:1;" d="M 12.089844 11.25 C 11.867188 12.027344 11.066406 14.648438 12.617188 13.773438 C 12.617188 13.773438 11.964844 14.148438 11.566406 15.574219 C 11.167969 16.996094 10.117188 17.171875 10.117188 17.171875 C 10.117188 17.171875 8.445312 17.496094 7.195312 16.421875 C 6.148438 15.523438 5.972656 13.925781 6.421875 12.699219 C 6.871094 11.476562 7.671875 11.128906 8.84375 10.878906 C 10.019531 10.601562 12.339844 10.378906 12.089844 11.25 Z M 12.089844 11.25 "/>
<path style=" stroke:none;fill-rule:nonzero;fill:rgb(0%,0%,0%);fill-opacity:1;" d="M 16.164062 18.769531 C 16.835938 18.769531 18.933594 20.21875 18.960938 21.992188 L 18.960938 21.890625 C 18.960938 20.042969 17.261719 18.570312 16.164062 18.570312 C 15.0625 18.570312 13.363281 20.066406 13.363281 21.890625 L 13.363281 21.992188 C 13.390625 20.21875 15.488281 18.769531 16.164062 18.769531 Z M 16.164062 18.769531 "/>
<path style=" stroke:none;fill-rule:nonzero;fill:rgb(20%,9.019608%,7.058824%);fill-opacity:1;" d="M 16.808594 14.898438 C 16.753906 14.699219 16.628906 14.558594 16.519531 14.585938 C 16.414062 14.613281 16.367188 14.796875 16.421875 15 C 16.472656 15.199219 16.601562 15.339844 16.707031 15.3125 C 16.8125 15.285156 16.859375 15.097656 16.808594 14.898438 Z M 16.808594 14.898438 "/>
<path style=" stroke:none;fill-rule:nonzero;fill:rgb(20%,9.019608%,7.058824%);fill-opacity:1;" d="M 15.726562 15.007812 C 15.785156 14.8125 15.75 14.625 15.644531 14.59375 C 15.539062 14.558594 15.40625 14.691406 15.34375 14.890625 C 15.28125 15.089844 15.320312 15.273438 15.421875 15.308594 C 15.527344 15.339844 15.664062 15.207031 15.726562 15.007812 Z M 15.726562 15.007812 "/>
<path style=" stroke:none;fill-rule:nonzero;fill:rgb(0%,0%,0%);fill-opacity:1;" d="M 11.441406 14.097656 C 11.441406 15.3125 10.457031 16.296875 9.242188 16.296875 C 8.03125 16.296875 7.046875 15.3125 7.046875 14.097656 C 7.046875 12.886719 8.03125 11.902344 9.242188 11.902344 C 10.457031 11.902344 11.441406 12.886719 11.441406 14.097656 Z M 11.441406 14.097656 "/>
<path style=" stroke:none;fill-rule:nonzero;fill:rgb(100%,100%,100%);fill-opacity:1;" d="M 10.394531 13.125 C 10.394531 13.441406 10.136719 13.699219 9.820312 13.699219 C 9.5 13.699219 9.242188 13.441406 9.242188 13.125 C 9.242188 12.808594 9.5 12.550781 9.820312 12.550781 C 10.136719 12.550781 10.394531 12.808594 10.394531 13.125 Z M 10.394531 13.125 "/>
<path style="fill-rule:nonzero;fill:rgb(49.803922%,29.019608%,25.490196%);fill-opacity:1;stroke-width:4.159;stroke-linecap:butt;stroke-linejoin:miter;stroke:rgb(30.196078%,30.196078%,30.196078%);stroke-opacity:1;stroke-miterlimit:10;" d="M 67.503195 58.203697 C 67.503195 58.094216 65.204095 59.204666 64.594129 59.298507 C 63.999804 59.204666 61.700703 58.094216 61.700703 58.203697 Z M 67.503195 58.203697 " transform="matrix(0.249758,0,0,0.249758,-0.046963,-0.411839)"/>
<path style=" stroke:none;fill-rule:nonzero;fill:rgb(93.72549%,80%,63.921569%);fill-opacity:1;" d="M 12.441406 14 C 12.441406 14 10.46875 15.347656 9.394531 16.671875 C 8.320312 17.996094 8.34375 18.246094 8.34375 18.246094 L 9.121094 18.59375 C 9.121094 18.59375 10.21875 16.523438 11.566406 15.746094 C 12.914062 14.972656 13.089844 14.324219 13.089844 14.324219 Z M 12.441406 14 "/>
<path style=" stroke:none;fill-rule:nonzero;fill:rgb(80%,67.45098%,55.294118%);fill-opacity:1;" d="M 8.121094 10.003906 C 8.121094 10.003906 7.445312 11.851562 5.945312 12.625 C 5.945312 12.625 8.296875 12.351562 8.121094 10.003906 Z M 23.878906 10.003906 C 23.878906 10.003906 24.554688 11.851562 26.054688 12.625 C 26.054688 12.625 23.703125 12.351562 23.878906 10.003906 Z M 19.609375 13.449219 C 19.609375 13.449219 18.136719 11.902344 16.164062 11.851562 C 16.136719 11.851562 16.210938 11.851562 16.1875 11.851562 C 16.164062 11.851562 16.210938 11.851562 16.210938 11.851562 C 14.214844 11.902344 12.765625 13.449219 12.765625 13.449219 C 14.488281 12.25 15.960938 12.277344 16.210938 12.277344 C 16.1875 12.277344 17.886719 12.25 19.609375 13.449219 Z M 17.886719 10.203125 C 17.886719 10.203125 17.136719 9.152344 16.136719 9.128906 L 16.1875 9.128906 C 15.4375 9.152344 14.464844 10.203125 14.464844 10.203125 C 15.3125 9.378906 16.1875 9.402344 16.1875 9.402344 C 16.1875 9.402344 17.011719 9.378906 17.886719 10.203125 Z M 9.242188 17.871094 C 9.242188 17.871094 8.070312 18.445312 7.222656 18.09375 L 7.195312 18.09375 C 6.445312 17.671875 6.070312 16.398438 6.070312 16.398438 C 6.070312 16.398438 6.820312 18.644531 9.242188 17.871094 Z M 22.929688 17.871094 C 22.929688 17.871094 24.105469 18.445312 24.953125 18.09375 C 25.953125 17.671875 26.101562 16.398438 26.101562 16.398438 C 26.101562 16.398438 25.351562 18.644531 22.929688 17.871094 Z M 10.59375 9.878906 C 11.242188 9.753906 12.316406 9.726562 13.164062 10.003906 C 14.238281 10.378906 13.363281 11.75 13.589844 11.828125 C 13.816406 11.902344 14.113281 10.878906 16.113281 10.976562 C 18.136719 11.078125 18.359375 11.976562 18.636719 11.828125 C 18.910156 11.675781 18.359375 9.328125 21.382812 9.878906 C 21.382812 9.878906 18.210938 9.027344 18.359375 11.328125 C 18.359375 11.328125 16.535156 9.929688 13.988281 11.175781 C 14.015625 11.175781 14.664062 9.027344 10.59375 9.878906 Z M 21.65625 9.878906 C 21.707031 9.878906 21.730469 9.902344 21.757812 9.902344 C 21.78125 9.902344 21.730469 9.878906 21.65625 9.878906 Z M 21.65625 9.878906 "/>
<path style=" stroke:none;fill-rule:nonzero;fill:rgb(80%,67.45098%,55.294118%);fill-opacity:1;" d="M 9.71875 6.804688 C 9.71875 6.804688 7.019531 10.203125 6.621094 11.5 C 6.222656 12.824219 5.921875 18.246094 5.574219 19.019531 L 4.324219 13.675781 L 6.621094 8.105469 Z M 22.40625 6.804688 C 22.40625 6.804688 25.105469 10.203125 25.503906 11.5 C 25.902344 12.824219 26.203125 18.246094 26.550781 19.019531 L 27.800781 13.675781 L 25.503906 8.105469 Z M 22.40625 6.804688 "/>
<path style=" stroke:none;fill-rule:nonzero;fill:rgb(33.72549%,20%,16.862745%);fill-opacity:1;" d="M 22.28125 6.804688 C 22.28125 6.804688 25.179688 9.230469 26.027344 12.027344 C 26.875 14.824219 26.527344 18.21875 27.175781 18.644531 C 28.101562 19.242188 29.148438 15.671875 29.5 15.296875 C 30.050781 14.699219 31.871094 13.175781 31.996094 12.898438 C 32.121094 12.625 28.300781 8.453125 26.628906 7.628906 C 24.605469 6.679688 22.105469 6.605469 22.28125 6.804688 Z M 22.28125 6.804688 "/>
<path style=" stroke:none;fill-rule:nonzero;fill:rgb(26.666667%,15.686275%,13.72549%);fill-opacity:1;" d="M 24.753906 8.304688 C 24.753906 8.304688 28.175781 12.675781 28.125 18.121094 L 29.5 15.324219 C 29.472656 15.324219 28.277344 11.75 24.753906 8.304688 Z M 24.753906 8.304688 "/>
<path style=" stroke:none;fill-rule:nonzero;fill:rgb(33.72549%,20%,16.862745%);fill-opacity:1;" d="M 9.71875 6.804688 C 9.71875 6.804688 6.820312 9.230469 5.972656 12.027344 C 5.121094 14.824219 5.472656 18.21875 4.824219 18.644531 C 3.898438 19.242188 2.851562 15.671875 2.5 15.296875 C 1.949219 14.699219 0.128906 13.175781 0.00390625 12.898438 C -0.121094 12.625 3.699219 8.453125 5.371094 7.628906 C 7.394531 6.679688 9.894531 6.605469 9.71875 6.804688 Z M 9.71875 6.804688 "/>
<path style=" stroke:none;fill-rule:nonzero;fill:rgb(26.666667%,15.686275%,13.72549%);fill-opacity:1;" d="M 7.246094 8.304688 C 7.246094 8.304688 3.824219 12.675781 3.875 18.121094 L 2.527344 15.324219 C 2.527344 15.324219 3.722656 11.75 7.246094 8.304688 Z M 7.246094 8.304688 "/>
<path style=" stroke:none;fill-rule:nonzero;fill:rgb(80%,67.45098%,55.294118%);fill-opacity:1;" d="M 5.398438 18.21875 C 5.398438 18.21875 5.648438 19.570312 6.046875 19.992188 C 6.445312 20.417969 6.171875 19.667969 6.171875 19.667969 C 6.171875 19.667969 5.746094 19.445312 5.824219 17.71875 C 5.898438 15.996094 5.398438 18.21875 5.398438 18.21875 Z M 26.703125 18.21875 C 26.703125 18.21875 26.453125 19.570312 26.054688 19.992188 C 25.652344 20.417969 25.929688 19.667969 25.929688 19.667969 C 25.929688 19.667969 26.351562 19.445312 26.277344 17.71875 C 26.203125 15.996094 26.703125 18.21875 26.703125 18.21875 Z M 26.703125 18.21875 "/>
<path style=" stroke:none;fill-rule:nonzero;fill:rgb(26.666667%,15.686275%,13.72549%);fill-opacity:1;" d="M 13.765625 17.195312 C 13.765625 17.304688 13.675781 17.394531 13.566406 17.394531 C 13.453125 17.394531 13.363281 17.304688 13.363281 17.195312 C 13.363281 17.085938 13.453125 16.996094 13.566406 16.996094 C 13.675781 16.996094 13.765625 17.085938 13.765625 17.195312 Z M 13.765625 17.195312 "/>
<path style=" stroke:none;fill-rule:nonzero;fill:rgb(26.666667%,15.686275%,13.72549%);fill-opacity:1;" d="M 12.617188 18.394531 C 12.617188 18.503906 12.527344 18.59375 12.414062 18.59375 C 12.304688 18.59375 12.214844 18.503906 12.214844 18.394531 C 12.214844 18.285156 12.304688 18.195312 12.414062 18.195312 C 12.527344 18.195312 12.617188 18.285156 12.617188 18.394531 Z M 12.617188 18.394531 "/>
<path style=" stroke:none;fill-rule:nonzero;fill:rgb(26.666667%,15.686275%,13.72549%);fill-opacity:1;" d="M 12.242188 17.195312 C 12.242188 17.304688 12.152344 17.394531 12.042969 17.394531 C 11.929688 17.394531 11.839844 17.304688 11.839844 17.195312 C 11.839844 17.085938 11.929688 16.996094 12.042969 16.996094 C 12.152344 16.996094 12.242188 17.085938 12.242188 17.195312 Z M 12.242188 17.195312 "/>
<path style=" stroke:none;fill-rule:nonzero;fill:rgb(26.666667%,15.686275%,13.72549%);fill-opacity:1;" d="M 18.636719 17.195312 C 18.636719 17.304688 18.546875 17.394531 18.433594 17.394531 C 18.324219 17.394531 18.234375 17.304688 18.234375 17.195312 C 18.234375 17.085938 18.324219 16.996094 18.433594 16.996094 C 18.546875 16.996094 18.636719 17.085938 18.636719 17.195312 Z M 18.636719 17.195312 "/>
<path style=" stroke:none;fill-rule:nonzero;fill:rgb(26.666667%,15.686275%,13.72549%);fill-opacity:1;" d="M 19.785156 18.394531 C 19.785156 18.503906 19.695312 18.59375 19.585938 18.59375 C 19.472656 18.59375 19.382812 18.503906 19.382812 18.394531 C 19.382812 18.285156 19.472656 18.195312 19.585938 18.195312 C 19.695312 18.195312 19.785156 18.285156 19.785156 18.394531 Z M 19.785156 18.394531 "/>
<path style=" stroke:none;fill-rule:nonzero;fill:rgb(26.666667%,15.686275%,13.72549%);fill-opacity:1;" d="M 20.160156 17.195312 C 20.160156 17.304688 20.070312 17.394531 19.957031 17.394531 C 19.847656 17.394531 19.757812 17.304688 19.757812 17.195312 C 19.757812 17.085938 19.847656 16.996094 19.957031 16.996094 C 20.070312 16.996094 20.160156 17.085938 20.160156 17.195312 Z M 20.160156 17.195312 "/>
</symbol>
</defs>
</svg>
