<svg xmlns="http://www.w3.org/2000/svg" xmlns:xlink="http://www.w3.org/1999/xlink" width="960" height="720" fill="none" xmlns:v="https://vecta.io/nano"><path d="M154.72 600.047c3.8-5.511 8.698-12.501 14.007-19.682 20-27.1 28.725-34.467 32.158-36.441 5.145-2.979 10.906-4.369 16.666-4.038l1.992.114 26.865-15.716 17.472 36.008-24.728 13.575-.93 1.824c-2.584 5.157-6.678 9.448-11.825 12.435-3.431 1.965-14.168 5.858-47.626 9.623-8.879.996-17.397 1.758-24.051 2.298z" fill="#ffce54"/><path d="M249.235 515.006l-31.304 18.303c-6.766-.391-13.853 1.165-20.345 4.914-16.587 9.576-55.944 69.367-55.944 69.367s71.447-4.181 88.055-13.763c6.471-3.744 11.375-9.11 14.421-15.174l28.417-15.601-23.3-48.046zm-11.454 52.093l-3.596 1.982-1.842 3.662c-2.013 3.998-5.214 7.347-9.242 9.672-1.327.766-9.761 4.806-45.017 8.78l-9.828 1.022 5.804-7.98c21.072-28.555 28.777-33.842 30.123-34.603 4.031-2.335 8.529-3.423 12.985-3.16l3.985.227 3.443-2.012 18.983-11.118 11.628 23.958-17.426 9.57z" fill="#f6bb42"/><path d="M275.129 587.614a281.05 281.05 0 0 0 12.112-2.444l86.566-32.428a411.32 411.32 0 0 0 11.079-6.135l6.31-3.738c-9.152 33.031-34.032 65.184-70.573 86.289-12.177 7.023-24.753 12.316-37.36 15.938-.088.027-.586.164-.586.164-2.761.662-5.747-.529-7.239-3.111a6.55 6.55 0 0 1-.837-2.708s-.046-.724-.025-1.029l-.497-50.62c.356-.054.695-.124 1.05-.178z" fill="url(#B)"/><path d="M323.455 425.498l-6.397 3.614c-3.652 2.116-7.278 4.288-10.84 6.519-13.208-1.616-71.388 58.759-71.388 58.759a302.31 302.31 0 0 0-8.172 9.269c-.232.268-.446.541-.678.809l-43.599-25.744c-.265-.131-.878-.536-.878-.536-.76-.524-1.416-1.22-1.924-2.088-1.491-2.582-1.023-5.752.934-7.822 0 0 .356-.355.432-.415 9.432-9.11 20.294-17.356 32.474-24.388 36.563-21.109 76.847-26.58 110.036-17.977z" fill="url(#C)"/><path d="M317.032 424.277c-45.808 26.455-82.918 60.747-108.153 96.841-1.367 2.037-1.567 4.728-.252 6.993l36.291 62.885c1.318 2.256 3.746 3.437 6.194 3.272 43.884-3.805 92.126-18.791 137.934-45.245 71.178-41.079 120.831-100.354 138.66-157.471.535-1.699.427-3.761-.529-5.429-.974-1.673-2.696-2.796-4.454-3.186-58.377-13.119-134.532.257-205.691 41.34z" fill="#e6e9ed"/><path d="M375.292 495.322a26.18 26.18 0 0 1-15.998-12.279c-3.514-6.099-4.455-13.202-2.632-20.005s6.189-12.483 12.281-16.008c6.09-3.516 13.211-4.453 19.995-2.635 6.803 1.823 12.483 6.189 16.018 12.284 7.262 12.593 2.933 28.748-9.65 36.013-6.108 3.511-13.211 4.453-19.995 2.635zM306.81 534.86a26.14 26.14 0 0 1-15.998-12.279 26.19 26.19 0 0 1-2.635-19.996c1.822-6.802 6.191-12.492 12.284-16.017 6.09-3.516 13.193-4.457 19.995-2.635a26.26 26.26 0 0 1 16.018 12.285c7.262 12.592 2.933 28.748-9.649 36.013a26.22 26.22 0 0 1-20.015 2.629z" fill="#434a54"/><path d="M410.664 453.392c-4.408-7.621-11.518-13.081-20.021-15.36-8.485-2.273-17.371-1.099-24.999 3.297-7.609 4.401-13.079 11.508-15.355 20.002-2.278 8.503-1.093 17.384 3.294 25.009a32.77 32.77 0 0 0 20.005 15.345 32.78 32.78 0 0 0 25.015-3.282c15.735-9.084 21.145-29.276 12.061-45.011zm-18.655 33.59c-4.737 2.726-10.115 3.288-15.011 1.976-4.878-1.307-9.274-4.488-11.993-9.212-5.459-9.455-2.219-21.546 7.236-27.005 4.718-2.732 10.112-3.28 14.99-1.973 4.896 1.312 9.275 4.479 12.014 9.209 5.458 9.454 2.218 21.546-7.236 27.005zm-69.85-9.402c-8.504-2.279-17.369-1.109-24.998 3.287a32.71 32.71 0 0 0-15.357 20.011c-2.276 8.495-1.109 17.37 3.296 25 4.408 7.621 11.499 13.077 20.003 15.355s17.391 1.105 25.019-3.291c15.734-9.084 21.145-29.278 12.061-45.012a32.78 32.78 0 0 0-20.024-15.35zm1.369 48.94c-4.739 2.736-10.116 3.288-15.012 1.976-4.878-1.307-9.276-4.478-11.993-9.212-5.46-9.455-2.22-21.546 7.236-27.005 4.718-2.732 10.112-3.279 14.99-1.972 4.896 1.312 9.276 4.478 12.015 9.208 5.459 9.454 2.219 21.546-7.236 27.005z" fill="#ccd1d9"/><g filter="url(#A)"><path d="M486.647 466.371l-49.24-85.273c30.589-4.573 59.678-3.92 85.316 1.839 1.758.39 3.48 1.513 4.454 3.186.956 1.668 1.064 3.73.529 5.429-7.829 25.104-21.814 50.611-41.059 74.819z" fill="url(#D)" shape-rendering="crispEdges"/></g><path d="M812.281 46.086s-.461 19.891-14.6 19.891c14.139 0 14.6 19.891 14.6 19.891s.461-19.891 14.6-19.891c-14.139 0-14.6-19.891-14.6-19.891z" fill="#ecb400"/><path d="M647.209 23.916s-.461 19.891-14.601 19.891c14.14 0 14.601 19.891 14.601 19.891s.461-19.891 14.6-19.891c-14.139 0-14.6-19.891-14.6-19.891z" fill="#ffe046"/><path d="M649.408 175.302s-.461 19.891-14.6 19.891c14.139 0 14.6 19.891 14.6 19.891s.462-19.891 14.601-19.891c-14.14 0-14.601-19.891-14.601-19.891z" fill="#ecb400"/><path d="M619.744 102.154c3.53 0 6.724 1.435 9.032 3.753-.181-1.226-.277-2.478-.277-3.753 0-14.078 11.412-25.49 25.489-25.49 13.433 0 24.431 10.394 25.411 23.577a14.59 14.59 0 0 1 7.291-1.942c8.103 0 14.672 6.569 14.672 14.672s-6.569 14.672-14.672 14.672h-66.946c-7.038 0-12.744-5.706-12.744-12.745s5.706-12.744 12.744-12.744z" fill="#585459"/><path d="M723.548 197.997c43.245 0 78.302-35.057 78.302-78.302s-35.057-78.302-78.302-78.302-78.302 35.057-78.302 78.302 35.057 78.302 78.302 78.302z" fill="url(#E)"/><path d="M825.21 119.609c-4.377 0-8.338 1.78-11.2 4.655a31.75 31.75 0 0 0 .344-4.655c0-17.458-14.151-31.609-31.608-31.609-16.658 0-30.297 12.889-31.511 29.237-2.664-1.529-5.749-2.407-9.041-2.407-10.048 0-18.194 8.146-18.194 18.194s8.146 18.194 18.194 18.194h83.017c8.728 0 15.804-7.076 15.804-15.804a15.81 15.81 0 0 0-15.805-15.805z" fill="url(#F)"/><g fill-rule="evenodd"><use xlink:href="#P" fill="#ff0"/><use xlink:href="#Q" fill="#fff"/><use xlink:href="#P" x="72" y="184" fill="#00f"/><use xlink:href="#R" fill="#0ff"/><path d="M187 433.218l8.362-10.929 8.362 10.929-8.362 10.929L187 433.218z" fill="#ff0"/><path d="M353.43 78.722l4.504-9.291 4.504 9.291-4.504 9.291-4.504-9.291z" fill="#0ff"/><use xlink:href="#P" x="488" y="48" fill="#00f"/><path d="M547 425.218l8.362-10.929 8.362 10.929-8.362 10.929L547 425.218z" fill="#ff0"/><g fill="#fff"><use xlink:href="#Q" x="56" y="192"/><use xlink:href="#Q" x="240" y="88"/><path d="M92.714 305.213c0-1.775 2.017-3.213 4.504-3.213s4.504 1.438 4.504 3.213-2.017 3.212-4.504 3.212-4.504-1.438-4.504-3.212z"/><use xlink:href="#Q" x="440" y="48"/><use xlink:href="#Q" x="232" y="-88"/><use xlink:href="#Q" x="248" y="-56"/><use xlink:href="#Q" x="136" y="368"/><use xlink:href="#Q" x="432" y="296"/><use xlink:href="#Q" x="568" y="-56"/><use xlink:href="#Q" x="584" y="192"/><use xlink:href="#Q" x="480" y="288"/><use xlink:href="#Q" x="256" y="264"/><use xlink:href="#Q" x="-96" y="432"/><use xlink:href="#Q" x="-80" y="448"/></g><path d="M330.717 570.856l4.503-9.292 4.504 9.292-4.504 9.291-4.503-9.291z" fill="#ff0"/><use xlink:href="#P" x="312" y="312" fill="#0ff"/><path d="M603 289.218l8.362-10.929 8.362 10.929-8.362 10.929L603 289.218z" fill="#ff0"/><path d="M593.43 573.793l13.15-16.363 13.15 16.363-13.15 16.362-13.15-16.362z" fill="#00f"/><use xlink:href="#Q" x="368" y="408" fill="#fff"/><path d="M851.005 629.793l8.362-16.363 8.363 16.363-8.363 16.362-8.362-16.362z" fill="#00f"/><path d="M475 665.501l4.504-3.212 4.504 3.212-4.504 3.213-4.504-3.213z" fill="#ff0"/><g fill="#0ff"><use xlink:href="#R" x="-239.999" y="200"/><use xlink:href="#R" x="344" y="80"/><use xlink:href="#P" x="688" y="-16"/></g><use xlink:href="#S" fill="#fff"/><path d="M931 407.58l8.362-9.291 8.362 9.291-8.362 9.291L931 407.58z" fill="#ff0"/><use xlink:href="#R" x="-311.999" y="64" fill="#0ff"/><path d="M225.43 24.36l8.363-10.929 8.362 10.929-8.362 10.929-8.363-10.929z" fill="#00f"/><use xlink:href="#Q" x="496" y="504" fill="#fff"/><use xlink:href="#P" x="248" y="536" fill="#0ff"/><path d="M33.431 617.714l8.362-12.284 8.362 12.284-8.362 12.283-8.362-12.283z" fill="#00f"/><use xlink:href="#S" x="-160" y="-40" fill="#fff"/></g><path d="M365.448 343.427s-3.063-3.676-9.262 4.253c-9.623-6.595-6.524-15.209-6.524-15.209s6.127.901 12.687-6.704c6.595-7.568 3.099 17.66 3.099 17.66z" fill="url(#G)"/><path d="M374.819 308.215c4.325 2.776 6.775 7.605 6.703 12.651-.072 6.343-1.081 16.687-6.343 21.552-6.307 5.875-19.534-2.703-21.841-14.308s-.828-17.336 10.488-21.192c4.505-1.55 8.182-.541 10.993 1.297z" fill="url(#H)"/><path d="M364.439 327.209s2.559-1.73 2.343-5.767 6.163-7.1 13.479-5.19c7.28 1.911 4.902-15.641-14.705-14.164s-14.74 21.228-14.74 21.228-2.091 25.337 13.623 3.893z" fill="url(#I)"/><path d="M359.321 326.452c.289 2.415 2.019 4.217 3.857 4.001s3.099-2.343 2.811-4.794c-.289-2.415-2.018-4.217-3.857-4-1.838.252-3.099 2.378-2.811 4.793z" fill="url(#J)"/><path d="M352.437 508.746c-4.397 1.37-9.01.685-12.073-2.486l.937-10.885c1.297-15.101-1.406-32.22-8.073-45.663-3.712-7.461-8.578-14.309-14.813-19.102-13.371-10.272-28.076-18.669-30.743-29.229-3.171-12.542 5.911-25.481 5.911-25.481l20.111 9.731c15.677 14.885 60.404 39.645 38.743 123.115z" fill="url(#K)"/><path d="M372.62 519.811s-.901 4.541-8.938 2.595-16.759-4.685-16.759-4.685l-11.569-3.749s1.694-7.244 6.271-10.56c8.974 5.046 12.074 2.379 12.074 2.379l18.921 14.02z" fill="url(#L)"/><path d="M317.406 335.931c5.874-4.289 12.254-7.713 19.534-9.947 2.955-1.118 6.307-.757 9.623 0 .829.216 1.766.468 2.667.864 1.586 2.379 2.667 5.226 3.316 8.038 2.378 9.983-9.299 32.653-17.732 37.806-7.966 4.866-13.66 13.912-15.894 23.03-5.767 23.715-31.176-.973-31.248-5.91-.144-11.281 16.471-37.519 29.734-53.881z" fill="url(#M)"/><path d="M397.741 401.273l11.1 12.722s-2.162 3.676-5.91 3.136l-1.046-.144c-5.189-.793-9.406-4.614-10.704-9.695l-.468-1.839 7.028-4.18z" fill="url(#N)"/><path d="M343.643 330.849c3.569-2.631 8.614-1.658 10.993 2.162 10.091 24.22 25.012 46.89 43.79 68.406l-6.74 4.793c-23.355-16.939-41.159-34.383-51.286-52.619-4.938-5.551-2.739-18.345 3.243-22.742z" fill="url(#O)"/><defs><filter id="A" x="433.407" y="378.087" width="98.62" height="96.284" filterUnits="userSpaceOnUse" color-interpolation-filters="sRGB"><feFlood flood-opacity="0" result="A"/><feColorMatrix in="SourceAlpha" values="0 0 0 0 0 0 0 0 0 0 0 0 0 0 0 0 0 0 127 0" result="B"/><feOffset dy="4"/><feGaussianBlur stdDeviation="2"/><feComposite in2="B" operator="out"/><feColorMatrix values="0 0 0 0 0 0 0 0 0 0 0 0 0 0 0 0 0 0 0.25 0"/><feBlend in2="A"/><feBlend in="SourceGraphic"/></filter><linearGradient id="B" x1="342.175" y1="529.734" x2="309.102" y2="653.163" xlink:href="#T"><stop stop-color="#ba00f7"/><stop offset="1" stop-color="#ba00f7" stop-opacity="0"/></linearGradient><linearGradient id="C" x1="261.734" y1="408.96" x2="235.462" y2="507.009" xlink:href="#T"><stop stop-color="#ba00f7"/><stop offset="1" stop-color="#ba00f7" stop-opacity="0"/></linearGradient><linearGradient id="D" x1="486.098" y1="373.116" x2="462.822" y2="459.987" xlink:href="#T"><stop stop-color="#ba00f7"/><stop offset="1" stop-color="#ba00f7" stop-opacity="0"/></linearGradient><linearGradient id="E" x1="723.548" y1="41.393" x2="723.548" y2="197.997" xlink:href="#T"><stop stop-color="#9ac2ff"/><stop offset="1" stop-color="#faeb9c" stop-opacity=".719"/><stop offset="1" stop-color="#ffe046" stop-opacity="0"/></linearGradient><linearGradient id="F" x1="782.508" y1="88" x2="782.508" y2="151.218" xlink:href="#T"><stop stop-color="#737273"/><stop offset="1" stop-color="#918e93" stop-opacity=".226"/><stop offset="1" stop-color="#dfbeea" stop-opacity=".193"/><stop offset="1" stop-color="#a93ccb" stop-opacity="0"/></linearGradient><linearGradient id="G" x1="352.606" y1="337.184" x2="378.073" y2="333.343" xlink:href="#T"><stop offset=".124" stop-color="#fccc9d"/><stop offset="1" stop-color="#fcf9d6"/></linearGradient><linearGradient id="H" x1="349.928" y1="339.295" x2="380.086" y2="315.176" xlink:href="#T"><stop offset=".124" stop-color="#fccc9d"/><stop offset="1" stop-color="#fcf9d6"/></linearGradient><linearGradient id="I" x1="384.227" y1="316.687" x2="350.219" y2="318.551" xlink:href="#T"><stop stop-color="#00608a"/><stop offset="1" stop-color="#00346c"/></linearGradient><linearGradient id="J" x1="351.889" y1="342.214" x2="373.312" y2="310.086" xlink:href="#T"><stop offset=".124" stop-color="#fccc9d"/><stop offset="1" stop-color="#fcf9d6"/></linearGradient><linearGradient id="K" x1="290.538" y1="466.097" x2="343.101" y2="427.636" xlink:href="#T"><stop stop-color="#00608a"/><stop offset="1" stop-color="#00346c"/></linearGradient><linearGradient id="L" x1="369.845" y1="524.759" x2="338.647" y2="506.453" xlink:href="#T"><stop stop-color="#fff"/><stop offset=".995" stop-color="#75ddff"/></linearGradient><linearGradient id="M" x1="328.526" y1="322.397" x2="311.912" y2="406.621" xlink:href="#T"><stop stop-color="#f67710"/><stop offset="1" stop-color="#f6ca10"/></linearGradient><linearGradient id="N" x1="409.134" y1="409.791" x2="390.459" y2="408.522" xlink:href="#T"><stop offset=".124" stop-color="#fccc9d"/><stop offset="1" stop-color="#fcf9d6"/></linearGradient><linearGradient id="O" x1="398.066" y1="367.533" x2="337.899" y2="368.111" xlink:href="#T"><stop stop-color="#f67710"/><stop offset="1" stop-color="#f6ca10"/></linearGradient><path id="P" d="M105.43 152.36l8.363-10.93 8.362 10.93-8.362 10.929-8.363-10.929z"/><path id="Q" d="M268.714 201.213c0-1.775 2.016-3.213 4.504-3.213s4.504 1.438 4.504 3.213-2.017 3.212-4.504 3.212-4.504-1.438-4.504-3.212z"/><path id="R" d="M329.43 286.722l4.504-9.292 4.504 9.292-4.504 9.291-4.504-9.291z"/><path id="S" d="M812.714 89.213c0-1.774 2.016-3.213 4.504-3.213s4.504 1.438 4.504 3.213-2.017 3.213-4.504 3.213-4.504-1.438-4.504-3.213z"/><linearGradient id="T" gradientUnits="userSpaceOnUse"/></defs></svg>