<svg aria-hidden="true" style="width: 0; height: 0; position: absolute; overflow: hidden" version="1.1" xmlns="http://www.w3.org/2000/svg" xmlns:xlink="http://www.w3.org/1999/xlink">
<defs>
<symbol id="icon-forward" viewBox="0 0 32 32">
<path d="M8.192 0c-3.554 6.439-4.153 16.259 9.808 15.932v-7.932l12 12-12 12v-7.762c-16.718 0.436-18.58-14.757-9.808-24.238z"></path>
</symbol>
<symbol id="icon-reply" viewBox="0 0 32 32">
<path d="M14 24.238v7.762l-12-12 12-12v7.932c13.961 0.327 13.362-9.493 9.808-15.932 8.772 9.482 6.909 24.674-9.808 24.238z"></path>
</symbol>
<symbol id="curvy-line">
  <path d="M 3 6 c 0 0 0 -1 1 0 C 4 7 5 6 5 6 C 5.3333 5.6667 5.6667 5.3333 6 6 C 6 6 7 7 7 6 C 7 5 8 6 8 6 C 8 7 9 6 9 6" fill="#00000000"></path>
</symbol>
</defs>
</svg>
